<svg xmlns="http://www.w3.org/2000/svg" xmlns:xlink="http://www.w3.org/1999/xlink" viewBox="0 0 341.55 309.82"><defs><style>.cls-1,.cls-10,.cls-4{fill:none;}.cls-2{clip-path:url(#clip-path);}.cls-11,.cls-3,.cls-9{fill:#fff;}.cls-10,.cls-4{stroke:#fff;stroke-miterlimit:10;}.cls-5{clip-path:url(#clip-path-3);}.cls-6{opacity:0.43;}.cls-7{fill:#005982;}.cls-8{fill:#33a0da;}.cls-9{font-size:39.39px;}.cls-11,.cls-9{font-family:SegoeUI, Segoe UI;}.cls-10{stroke-width:0.5px;}.cls-11{font-size:40.82px;}</style><clipPath id="clip-path" transform="translate(-230.32 -229.53)"><rect class="cls-1" width="769" height="769"/></clipPath><clipPath id="clip-path-3" transform="translate(-230.32 -229.53)"><rect class="cls-1" x="4.75" y="0.95" width="764.25" height="768.05"/></clipPath></defs><g id="Layer_2" data-name="Layer 2"><g id="Layer_1-2" data-name="Layer 1"><g class="cls-2"><g class="cls-2"><polygon class="cls-3" points="37.41 18.22 37.41 123.28 0.21 158.29 37.41 202.04 39.59 284.08 98.66 274.24 132.57 309.24 209.14 281.89 288.99 290.64 288.99 254.56 340.75 235.96 289.94 169.21 291.03 4.01 191.55 28.06 169.69 0.73 135.8 31.34 37.41 18.22"/><polygon class="cls-4" points="37.88 18.22 37.88 123.28 0.69 158.29 37.88 202.04 40.07 284.08 99.14 274.24 133.05 309.24 209.62 281.89 289.47 290.64 289.47 254.56 340.75 235.96 290.42 169.21 291.51 4.01 192.03 28.06 170.16 0.73 136.27 31.34 37.88 18.22"/><polygon class="cls-7" points="110.8 259.9 189.59 270.34 137.38 289.33 110.8 259.9"/><polygon class="cls-7" points="281.4 176.35 281.4 239.01 317.47 225.72 281.4 176.35"/><polygon class="cls-7" points="140.09 48.27 144.66 48.9 182.95 38.69 169.66 20.65 140.09 48.27"/><polygon class="cls-7" points="54.88 127.5 22.33 157.36 55.44 195.67 54.88 127.5"/><polygon class="cls-7" points="162.42 51.42 275.7 23.5 273.8 272.24 117.92 256.37 162.42 51.42"/><polygon class="cls-8" points="54.49 36.32 56.39 267.02 244.37 234.74 245.32 62.9 54.49 36.32"/><text class="cls-9" transform="translate(61.65 225.03)">C</text><g class="cls-5"><path class="cls-10" d="M313.77,450.27a13.56,13.56,0,0,1-7.19,1.84,9.36,9.36,0,0,1-7.24-3,11.33,11.33,0,0,1-2.77-8,11.94,11.94,0,0,1,3-8.48,10,10,0,0,1,7.7-3.17,13.19,13.19,0,0,1,6.54,1.65v-3.44a16.11,16.11,0,0,0-6.5-1.14,13.52,13.52,0,0,0-10.1,4.08,14.67,14.67,0,0,0-4,10.69,14,14,0,0,0,3.54,10,12.27,12.27,0,0,0,9.42,3.79,16.16,16.16,0,0,0,7.62-1.62Z" transform="translate(-230.32 -229.53)"/></g><text class="cls-9" transform="translate(86.04 225.03)">l</text><rect class="cls-10" x="89.15" y="196.27" width="2.85" height="29.43"/><text class="cls-11" transform="translate(95.58 225.03)">u</text><g class="cls-5"><path class="cls-10" d="M345.1,434.34h-2.85V446.1a6.72,6.72,0,0,1-1.55,4.62,5,5,0,0,1-3.94,1.76q-5,0-4.95-6.46V434.34H329v12.13q0,8.65,7.09,8.65a6.49,6.49,0,0,0,6.12-3.69h.08v3.8h2.85Z" transform="translate(-230.32 -229.53)"/></g><text class="cls-9" transform="translate(118.68 225.03)">b</text><g class="cls-5"><path class="cls-10" d="M356.27,439a5.57,5.57,0,0,1,4.42-1.92,5,5,0,0,1,4.12,1.87,7.94,7.94,0,0,1,1.52,5.15,10,10,0,0,1-1.63,6.1,5.66,5.66,0,0,1-8.52.49,5.83,5.83,0,0,1-1.59-4.14v-2.75A7,7,0,0,1,356.27,439Zm4.26,16.7a8,8,0,0,0,6.53-2.95,12.09,12.09,0,0,0,2.39-7.86,10.85,10.85,0,0,0-2.13-7,7.17,7.17,0,0,0-5.89-2.63,7.41,7.41,0,0,0-6.76,3.9h-.08V425.8h-2.84v29.43h2.84v-2.85h.08A6.44,6.44,0,0,0,360.53,455.67Z" transform="translate(-230.32 -229.53)"/><path class="cls-3" d="M298.11,316.2a44.34,44.34,0,0,0,.11-5.75h.08a31.51,31.51,0,0,0,.86,3.08l9.83,21.6h1.65l9.81-21.76a17.13,17.13,0,0,0,.86-2.92h.08c-.19,2.32-.28,4.18-.5,5.71v19h3.8V306.65h-4.25l-9,20.17c-.35.78-.81,2-1.39,3.57h-.14a23.35,23.35,0,0,0-1.31-3.49l-8.85-20.25h-4.46v28.48h2.85Z" transform="translate(-230.32 -229.53)"/><path class="cls-3" d="M332,309.26a2.11,2.11,0,0,0,1.53-.62,2.07,2.07,0,0,0,.63-1.53,2,2,0,0,0-.63-1.51,2.21,2.21,0,0,0-3.05,0,2,2,0,0,0-.63,1.51,2,2,0,0,0,.63,1.55,2.13,2.13,0,0,0,1.52.6" transform="translate(-230.32 -229.53)"/><rect class="cls-3" x="100.07" y="85.67" width="2.85" height="20.89"/><path class="cls-3" d="M346.71,335.53a9.81,9.81,0,0,0,5.51-1.45V331a7.67,7.67,0,0,1-4.93,1.77,6.52,6.52,0,0,1-5.08-2.09,8.11,8.11,0,0,1-1.9-5.68,8.48,8.48,0,0,1,2.07-6,6.58,6.58,0,0,1,5.11-2.18,13.28,13.28,0,0,1,5.68,1.6V315a17.09,17.09,0,0,0-5.54-1,10.11,10.11,0,0,0-7.79,3.11,11.49,11.49,0,0,0-2.9,8.16,10.35,10.35,0,0,0,2.65,7.35,9.24,9.24,0,0,0,7.12,2.93" transform="translate(-230.32 -229.53)"/><path class="cls-3" d="M358.87,325.11a9.58,9.58,0,0,1,1.58-5.86,4.15,4.15,0,0,1,3.45-1.9,4,4,0,0,1,2.56.7v-3.58a5.4,5.4,0,0,0-2-.29,4.93,4.93,0,0,0-3.22,1.18A7.43,7.43,0,0,0,359,319h-.08V315.2H356v20.88h2.85Z" transform="translate(-230.32 -229.53)"/><path class="cls-3" d="M377.42,335.53a9.73,9.73,0,0,0,7.46-3,11.09,11.09,0,0,0,2.77-7.89q0-5-2.57-7.84A9.17,9.17,0,0,0,377.9,314a10.25,10.25,0,0,0-7.46,2.73q-3,2.94-3,8.29a10.72,10.72,0,0,0,2.65,7.57,9.46,9.46,0,0,0,7.34,3m-4.67-16.74a6.34,6.34,0,0,1,4.91-2,6.07,6.07,0,0,1,4.84,2,11.05,11.05,0,0,1,.12,11.84,6,6,0,0,1-5,2.11,6.36,6.36,0,0,1-5-2.08,8.3,8.3,0,0,1-1.87-5.77,8.73,8.73,0,0,1,1.95-6.08" transform="translate(-230.32 -229.53)"/><path class="cls-3" d="M400.67,333.5a5.2,5.2,0,0,0,1.84-4.09,5,5,0,0,0-1.47-3.68,11.63,11.63,0,0,0-3.7-2.21,11.3,11.3,0,0,1-3-1.67,2.72,2.72,0,0,1-.81-2.16,2.42,2.42,0,0,1,.47-1.42,3.61,3.61,0,0,1,3.06-1.29,7.57,7.57,0,0,1,4.54,1.43v-3.23a9.52,9.52,0,0,0-4.29-.94,7.69,7.69,0,0,0-5.09,1.65,5.21,5.21,0,0,0-2,4.16,5.13,5.13,0,0,0,1.28,3.62,10.31,10.31,0,0,0,3.58,2.27,13.39,13.39,0,0,1,3.29,1.85,2.48,2.48,0,0,1,.84,1.93q0,2.8-3.82,2.8a8,8,0,0,1-5.2-1.92v3.45a9.76,9.76,0,0,0,5,1.22,8.06,8.06,0,0,0,5.5-1.77" transform="translate(-230.32 -229.53)"/><path class="cls-3" d="M414.77,335.53a9.77,9.77,0,0,0,7.47-3,11.13,11.13,0,0,0,2.77-7.89q0-5-2.58-7.84a9.16,9.16,0,0,0-7.18-2.86,10.25,10.25,0,0,0-7.46,2.73q-3,2.94-3,8.29a10.72,10.72,0,0,0,2.65,7.57,9.46,9.46,0,0,0,7.34,3m-4.67-16.74a6.34,6.34,0,0,1,4.91-2,6.07,6.07,0,0,1,4.84,2,11,11,0,0,1,.12,11.84,6,6,0,0,1-5,2.11,6.36,6.36,0,0,1-5-2.08,8.3,8.3,0,0,1-1.87-5.77,8.73,8.73,0,0,1,2-6.08" transform="translate(-230.32 -229.53)"/><path class="cls-3" d="M449.06,318V315.2h-4.75v-6.34a16.26,16.26,0,0,0-2.85,1.06v5.28h-8.54v-3.44c-.24-2.9.91-4.35,3.21-4.35a3,3,0,0,1,1.54.54v-3.29a6.08,6.08,0,0,0-2.29-.35,6,6,0,0,0-4.24,1.6,6.53,6.53,0,0,0-2,5.09v4.2h-3.8V318h4.75v18h2.85V318h7.59V330.2q0,6.06,5.43,6.06a6.34,6.34,0,0,0,3.12-.66v-2.5a3,3,0,0,1-1.95.67,2.46,2.46,0,0,1-2.15-.89,5.25,5.25,0,0,1-.65-3V318Z" transform="translate(-230.32 -229.53)"/><path class="cls-3" d="M301,375.72a11.09,11.09,0,0,0,7.15-2.11,7.1,7.1,0,0,0,2.63-5.84,6.88,6.88,0,0,0-1.56-4.44,19,19,0,0,0-5.47-4.11A31.45,31.45,0,0,1,300,356.9a5.74,5.74,0,0,1-1.56-1.75,5,5,0,0,1-.46-2.34,3.92,3.92,0,0,1,1.55-3.24,6.29,6.29,0,0,1,4-1.22,9.39,9.39,0,0,1,6,1.81v-3.87a12.15,12.15,0,0,0-5.8-1,10.13,10.13,0,0,0-6.74,2.18,7.57,7.57,0,0,0-1.15,10.19,17.49,17.49,0,0,0,5.1,3.9,22.41,22.41,0,0,1,5,3.49,4.52,4.52,0,0,1,1.21,3.17q0,4.43-5.67,4.42a10.88,10.88,0,0,1-3.81-.76,10.26,10.26,0,0,1-3.3-1.89V374a9.82,9.82,0,0,0,2.93,1.14,14.83,14.83,0,0,0,3.71.54" transform="translate(-230.32 -229.53)"/><path class="cls-3" d="M324.69,357.92v-2.85H319v-6.52l-3.79,1.07v5.45h-3.8v2.85h3.8v11.91c.34,4.09,2.16,6.13,5.79,6.13a19.41,19.41,0,0,0,3.7-.67V373a4,4,0,0,1-2.34.68,3.26,3.26,0,0,1-2.58-.89,4.57,4.57,0,0,1-.78-3V357.92Z" transform="translate(-230.32 -229.53)"/><path class="cls-3" d="M341.78,367.05a7,7,0,0,1-1.52,4.68,5,5,0,0,1-4,1.8q-5,0-5-6.56v-11.9h-3.79V367.2q0,8.67,7.62,8.67a7,7,0,0,0,6.54-3.71h.08V376h3.8V355.07h-3.8Z" transform="translate(-230.32 -229.53)"/><path class="cls-3" d="M365.51,372.16h-.95V376h3.8V344.63h-3.8v13.29h.84a6.68,6.68,0,0,0-6.23-3.37,8.54,8.54,0,0,0-6.94,3.13,12.58,12.58,0,0,0-2.59,8.28,11.5,11.5,0,0,0,2.34,7.56,8.34,8.34,0,0,0,13.42-1.2m-6.16.38a5.43,5.43,0,0,1-4.49-2.08,8.81,8.81,0,0,1-1.67-5.66,9.65,9.65,0,0,1,1.77-6.16,6,6,0,0,1,10.66,3.77v3.06a7.41,7.41,0,0,1-1.76,5.08,5.77,5.77,0,0,1-4.51,2" transform="translate(-230.32 -229.53)"/><path class="cls-3" d="M388.3,370.88a8,8,0,0,1-5.92,2.28,6.51,6.51,0,0,1-4.93-1.86c-1.18-1.24-1.8-3-1.85-5.79h14.6v-1.33a10.51,10.51,0,0,0-2.19-7.36,7.88,7.88,0,0,0-6.3-2.63,8.93,8.93,0,0,0-4.88,1.4,9.64,9.64,0,0,0-3.44,4,12.68,12.68,0,0,0-1.25,5.64c0,3.38.84,6,2.5,7.95a8.74,8.74,0,0,0,6.95,2.87c3,0,5.41-.67,6.71-2ZM378,358.26a5.35,5.35,0,0,1,4-1.67,4.69,4.69,0,0,1,3.8,1.6,6.82,6.82,0,0,1,1.39,4.47H375.92a7.8,7.8,0,0,1,2.08-4.4" transform="translate(-230.32 -229.53)"/><path class="cls-3" d="M408.23,363.61V375H412V362.46a9.48,9.48,0,0,0-1.83-6.24,6.58,6.58,0,0,0-5.35-2.21,7.7,7.7,0,0,0-7,3.91h-.08v-2.85H394V376h3.8V363.18a6.86,6.86,0,0,1,1.66-4.75,5.29,5.29,0,0,1,4.11-1.85q4.83,0,4.83,6.6" transform="translate(-230.32 -229.53)"/><path class="cls-3" d="M426.27,357.92v-2.85h-5.69v-6.52l-3.8,1.07v5.45h-2.85v2.85h3.8v12.3q0,6.13,5.43,6.14a6.37,6.37,0,0,0,3.11-.67V373a4,4,0,0,1-2.34.68,3.27,3.27,0,0,1-2.58-.89,4.58,4.58,0,0,1-.77-3V357.92Z" transform="translate(-230.32 -229.53)"/><path class="cls-3" d="M310.82,388.68c-1.71-1.52-4.13-2.28-7.24-2.28h-8.32v29.43h3.8V404.44h3.77a11.1,11.1,0,0,0,7.65-2.59,8.69,8.69,0,0,0,2.91-6.81,8.14,8.14,0,0,0-2.57-6.41m-2.51,11.31a8.33,8.33,0,0,1-5.56,1.65h-3.69V389.25h4.13q7.05,0,7.05,6a5.85,5.85,0,0,1-1.93,4.71" transform="translate(-230.32 -229.53)"/><path class="cls-3" d="M322.26,394a14.29,14.29,0,0,0-3.94.64,10.16,10.16,0,0,0-3.12,1.33v4.39a10.27,10.27,0,0,1,6.78-2.54c2.86,0,4.28,1.76,4.28,5.28l-6.23.87q-6.87,1-6.86,6.79a5.63,5.63,0,0,0,1.8,4.39A7.53,7.53,0,0,0,326.18,413h-.54v2.85h3.8v-14.1q0-7.78-7.34-7.78m3.54,12.85a6.19,6.19,0,0,1-1.62,4.37,5.33,5.33,0,0,1-4.09,1.74,4.27,4.27,0,0,1-2.86-.94,3.09,3.09,0,0,1-1.12-2.5,3.46,3.46,0,0,1,1-2.8,7.43,7.43,0,0,1,3.61-1.23l5-.71Z" transform="translate(-230.32 -229.53)"/><path class="cls-3" d="M339.91,395.34a7.35,7.35,0,0,0-2.13,3.4h.2v-3.8h-3.8v20.89H337v-10.6a9.55,9.55,0,0,1,1.4-5.41,4.2,4.2,0,0,1,3.63-2.08,4.25,4.25,0,0,1,2.57.67v-4a5.47,5.47,0,0,0-2-.29,4.91,4.91,0,0,0-3.31,1.25" transform="translate(-230.32 -229.53)"/><path class="cls-3" d="M353.17,388.76l-3.8,1.08v5.1h-3.79v2.85h3.79V410.1q0,6.13,5.43,6.13a6.33,6.33,0,0,0,3.12-.67v-2.71a4.1,4.1,0,0,1-2.34.68,3.3,3.3,0,0,1-2.59-.89,4.65,4.65,0,0,1-.77-3V397.79h5.7v-2.85h-4.75Z" transform="translate(-230.32 -229.53)"/><path class="cls-3" d="M371.93,394.78a7.47,7.47,0,0,0-6.82,4h-.55v-3.8h-3.79v20.89h3.79V404a7,7,0,0,1,1.63-4.74,5.18,5.18,0,0,1,4.06-1.86q4.75,0,4.76,6.6v11.86h3.79V402.52a10,10,0,0,0-1.79-6.34,6.33,6.33,0,0,0-5.23-2.23" transform="translate(-230.32 -229.53)"/><path class="cls-3" d="M391.39,394.41a8.85,8.85,0,0,0-4.88,1.4,9.5,9.5,0,0,0-3.44,3.95,12.67,12.67,0,0,0-1.25,5.63q0,5.08,2.5,7.95a8.69,8.69,0,0,0,6.94,2.88,13.23,13.23,0,0,0,7.48-2V411.1a11.44,11.44,0,0,1-6.68,2.27,6.54,6.54,0,0,1-4.93-1.85,7.64,7.64,0,0,1-1.86-5.18h15.37V404.4c-.69-3.16-1.44-5.61-2.95-7.36a7.85,7.85,0,0,0-6.3-2.63m-5.79,9.08a7.86,7.86,0,0,1,2.07-4.41,5.37,5.37,0,0,1,4-1.66,4.72,4.72,0,0,1,3.81,1.59,6.85,6.85,0,0,1,1.39,4.48Z" transform="translate(-230.32 -229.53)"/><path class="cls-3" d="M409.77,395.34a7.29,7.29,0,0,0-2.14,3.4h-.34v-3.8h-3.8v20.89h3.8v-10.6a9.55,9.55,0,0,1,1.39-5.41,4.54,4.54,0,0,1,6.2-1.41v-4a5.39,5.39,0,0,0-2-.29,4.91,4.91,0,0,0-3.31,1.25" transform="translate(-230.32 -229.53)"/><path class="cls-3" d="M423,403.6a11,11,0,0,1-3.07-1.69,2.43,2.43,0,0,1-.66-1.2,3.13,3.13,0,0,1,1.12-3,4.09,4.09,0,0,1,2.32-.62,7.51,7.51,0,0,1,4.54,1.43v-3.23a9.7,9.7,0,0,0-4.28-.94,7.65,7.65,0,0,0-5.07,1.67,5.57,5.57,0,0,0-.9,7.6,10.06,10.06,0,0,0,3.75,2.44,14.26,14.26,0,0,1,3.39,1.93,2.46,2.46,0,0,1,.74,1.85c0,1.86-1.27,2.8-3.81,2.8a8.08,8.08,0,0,1-5.21-1.92v3.44a9.87,9.87,0,0,0,5,1.22,8.2,8.2,0,0,0,5.34-1.63,5.19,5.19,0,0,0,2-4.23,4.9,4.9,0,0,0-1.15-3.34,11,11,0,0,0-4-2.55" transform="translate(-230.32 -229.53)"/></g></g></g></g></g></svg>