<?xml version="1.0" standalone="no"?>
<!DOCTYPE svg PUBLIC "-//W3C//DTD SVG 20010904//EN"
 "http://www.w3.org/TR/2001/REC-SVG-20010904/DTD/svg10.dtd">
<svg version="1.0" xmlns="http://www.w3.org/2000/svg"
 width="500.000000pt" height="500.000000pt" viewBox="0 0 500.000000 500.000000"
 preserveAspectRatio="xMidYMid meet">
<metadata>
Created by potrace 1.11, written by Peter Selinger 2001-2013
</metadata>
<g transform="translate(0.000000,500.000000) scale(0.100000,-0.100000)"
fill="#000000" stroke="none">
<path d="M0 2500 l0 -2500 2500 0 2500 0 0 2500 0 2500 -2500 0 -2500 0 0
-2500z m4865 0 l0 -2325 -2362 -3 -2363 -2 0 2330 0 2330 2363 -2 2362 -3 0
-2325z"/>
<path d="M280 2500 l0 -2180 2225 0 2225 0 0 2180 0 2180 -2225 0 -2225 0 0
-2180z m830 580 l0 -380 413 2 412 3 3 378 2 377 195 0 195 0 0 -950 0 -950
-195 0 -195 0 0 405 0 405 -415 0 -415 0 0 -405 0 -405 -195 0 -195 0 0 950 0
950 195 0 195 0 0 -380z m2505 371 c175 -12 267 -32 372 -82 167 -79 243 -202
243 -392 0 -52 -7 -98 -20 -138 -48 -141 -124 -209 -305 -275 -15 -5 -4 -10
42 -20 99 -21 207 -71 263 -121 33 -30 62 -69 87 -121 38 -75 38 -77 38 -196
0 -91 -5 -134 -18 -173 -58 -166 -196 -279 -407 -333 -120 -31 -281 -39 -792
-40 l-448 0 0 950 0 950 403 0 c221 0 465 -5 542 -9z"/>
<path d="M3060 2925 l0 -237 293 5 c325 5 342 7 412 69 54 48 68 89 63 183 -5
100 -38 149 -123 185 -58 24 -68 25 -352 28 l-293 4 0 -237z"/>
<path d="M3060 2129 l0 -270 328 3 c382 5 406 9 483 87 53 53 69 95 69 189 0
70 -14 112 -55 160 -70 84 -167 102 -540 102 l-285 0 0 -271z"/>
</g>
</svg>
